<?xml version="1.0" encoding="utf-8"?>
<!-- Generator: Adobe Illustrator 25.2.1, SVG Export Plug-In . SVG Version: 6.00 Build 0)  -->
<svg version="1.1" id="Layer_1" xmlns="http://www.w3.org/2000/svg" xmlns:xlink="http://www.w3.org/1999/xlink" x="0px" y="0px"
	 viewBox="0 0 1366 768" style="enable-background:new 0 0 1366 768;" xml:space="preserve">
<style type="text/css">
	.st0{fill:url(#SVGID_1_);}
	.st1{fill:#DFCF77;}
	.st2{fill:url(#SVGID_2_);}
	.st3{fill:url(#SVGID_3_);}
	.st4{fill:url(#SVGID_4_);}
	.st5{fill:url(#SVGID_5_);}
	.st6{fill:url(#SVGID_6_);}
	.st7{fill:url(#SVGID_7_);}
	.st8{fill:url(#SVGID_8_);}
	.st9{fill:url(#SVGID_9_);}
	.st10{fill:#EDDC7E;}
	.st11{fill:url(#SVGID_10_);}
	.st12{fill:url(#SVGID_11_);}
	.st13{fill:url(#SVGID_12_);}
	.st14{fill:url(#SVGID_13_);}
	.st15{fill:url(#SVGID_14_);}
	.st16{fill:url(#SVGID_15_);}
	.st17{fill:url(#SVGID_16_);}
	.st18{fill:url(#SVGID_17_);}
	.st19{fill:url(#SVGID_18_);}
	.st20{fill:url(#SVGID_19_);}
	.st21{fill:url(#SVGID_20_);}
	.st22{fill:url(#SVGID_21_);}
	.st23{filter:url(#Adobe_OpacityMaskFilter);}
	.st24{filter:url(#Adobe_OpacityMaskFilter_1_);}
	.st25{mask:url(#SVGID_22_);fill:url(#SVGID_23_);}
	.st26{opacity:0.94;fill:url(#SVGID_24_);}
	.st27{fill:#EC6FED;}
	.st28{fill:#EB7FED;}
	.st29{fill:#ED8CED;}
</style>
<g>
	<g>
		
			<radialGradient id="SVGID_1_" cx="5788.1597" cy="1065.9161" r="563.7235" gradientTransform="matrix(0.5882 -0.2622 0.2622 0.5882 -2918.0134 852.9555)" gradientUnits="userSpaceOnUse">
			<stop  offset="7.000000e-08" style="stop-color:#CD8D00"/>
			<stop  offset="0.1494" style="stop-color:#CE8F02"/>
			<stop  offset="0.234" style="stop-color:#D0940B"/>
			<stop  offset="0.3025" style="stop-color:#D49D18"/>
			<stop  offset="0.3623" style="stop-color:#D9AA2C"/>
			<stop  offset="0.4165" style="stop-color:#E1BA46"/>
			<stop  offset="0.4658" style="stop-color:#E9CE65"/>
			<stop  offset="0.5011" style="stop-color:#F1E080"/>
			<stop  offset="0.573" style="stop-color:#E8C869"/>
			<stop  offset="0.6955" style="stop-color:#DAA549"/>
			<stop  offset="0.811" style="stop-color:#D18C31"/>
			<stop  offset="0.9157" style="stop-color:#CB7C23"/>
			<stop  offset="1" style="stop-color:#C9771E"/>
		</radialGradient>
		<path class="st0" d="M673.5,322.95c0,0-7.76-78.55,49.61-130.81c57.37-52.25,171.76-34.48,171.76-34.48L673.5,322.95z"/>
		<path class="st1" d="M673.5,322.95c0,0,49.49-153.34,221.37-165.29L673.5,322.95z"/>
	</g>
	<g>
		
			<radialGradient id="SVGID_2_" cx="7580.5874" cy="8341.3057" r="563.7128" gradientTransform="matrix(0.122 -0.6323 0.6323 0.122 -5792.668 3819.5886)" gradientUnits="userSpaceOnUse">
			<stop  offset="7.000000e-08" style="stop-color:#CD8D00"/>
			<stop  offset="0.1494" style="stop-color:#CE8F02"/>
			<stop  offset="0.234" style="stop-color:#D0940B"/>
			<stop  offset="0.3025" style="stop-color:#D49D18"/>
			<stop  offset="0.3623" style="stop-color:#D9AA2C"/>
			<stop  offset="0.4165" style="stop-color:#E1BA46"/>
			<stop  offset="0.4658" style="stop-color:#E9CE65"/>
			<stop  offset="0.5011" style="stop-color:#F1E080"/>
			<stop  offset="0.573" style="stop-color:#E8C869"/>
			<stop  offset="0.6955" style="stop-color:#DAA549"/>
			<stop  offset="0.811" style="stop-color:#D18C31"/>
			<stop  offset="0.9157" style="stop-color:#CB7C23"/>
			<stop  offset="1" style="stop-color:#C9771E"/>
		</radialGradient>
		<path class="st2" d="M648.98,326.5c0,0-68.83-38.64-78.79-115.6c-9.96-76.96,70.13-160.53,70.13-160.53L648.98,326.5z"/>
		<path class="st1" d="M648.98,326.5c0,0-97.33-128.41-8.67-276.13L648.98,326.5z"/>
	</g>
	<g>
		
			<radialGradient id="SVGID_3_" cx="3923.3997" cy="13187.1729" r="563.7468" gradientTransform="matrix(-0.3486 -0.5415 0.5415 -0.3486 -5514.9897 7033.856)" gradientUnits="userSpaceOnUse">
			<stop  offset="7.000000e-08" style="stop-color:#CD8D00"/>
			<stop  offset="0.1494" style="stop-color:#CE8F02"/>
			<stop  offset="0.234" style="stop-color:#D0940B"/>
			<stop  offset="0.3025" style="stop-color:#D49D18"/>
			<stop  offset="0.3623" style="stop-color:#D9AA2C"/>
			<stop  offset="0.4165" style="stop-color:#E1BA46"/>
			<stop  offset="0.4658" style="stop-color:#E9CE65"/>
			<stop  offset="0.5011" style="stop-color:#F1E080"/>
			<stop  offset="0.573" style="stop-color:#E8C869"/>
			<stop  offset="0.6955" style="stop-color:#DAA549"/>
			<stop  offset="0.811" style="stop-color:#D18C31"/>
			<stop  offset="0.9157" style="stop-color:#CB7C23"/>
			<stop  offset="1" style="stop-color:#C9771E"/>
		</radialGradient>
		<path class="st3" d="M628.74,348.91c0,0-76.46,19.62-136.83-29.14s-60.2-164.51-60.2-164.51L628.74,348.91z"/>
		<path class="st1" d="M628.74,348.91c0,0-159.08-25.59-197.03-193.65L628.74,348.91z"/>
	</g>
	<g>
		
			<radialGradient id="SVGID_4_" cx="-2677.1382" cy="14199.0605" r="563.6594" gradientTransform="matrix(-0.6306 -0.1309 0.1309 -0.6306 -3199.4814 9218.542)" gradientUnits="userSpaceOnUse">
			<stop  offset="7.000000e-08" style="stop-color:#CD8D00"/>
			<stop  offset="0.1494" style="stop-color:#CE8F02"/>
			<stop  offset="0.234" style="stop-color:#D0940B"/>
			<stop  offset="0.3025" style="stop-color:#D49D18"/>
			<stop  offset="0.3623" style="stop-color:#D9AA2C"/>
			<stop  offset="0.4165" style="stop-color:#E1BA46"/>
			<stop  offset="0.4658" style="stop-color:#E9CE65"/>
			<stop  offset="0.5011" style="stop-color:#F1E080"/>
			<stop  offset="0.573" style="stop-color:#E8C869"/>
			<stop  offset="0.6955" style="stop-color:#DAA549"/>
			<stop  offset="0.811" style="stop-color:#D18C31"/>
			<stop  offset="0.9157" style="stop-color:#CB7C23"/>
			<stop  offset="1" style="stop-color:#C9771E"/>
		</radialGradient>
		<path class="st4" d="M633.24,376.44c0,0-39.6,68.28-116.69,77.16c-77.09,8.88-159.53-72.38-159.53-72.38L633.24,376.44z"/>
		<path class="st1" d="M633.24,376.44c0,0-129.76,95.52-276.23,4.79L633.24,376.44z"/>
	</g>
	<g>
		
			<radialGradient id="SVGID_5_" cx="-6966.9697" cy="10840.8564" r="563.6723" gradientTransform="matrix(-0.5657 0.3079 -0.3079 -0.5657 -9.3002 9040.1953)" gradientUnits="userSpaceOnUse">
			<stop  offset="7.000000e-08" style="stop-color:#CD8D00"/>
			<stop  offset="0.1494" style="stop-color:#CE8F02"/>
			<stop  offset="0.234" style="stop-color:#D0940B"/>
			<stop  offset="0.3025" style="stop-color:#D49D18"/>
			<stop  offset="0.3623" style="stop-color:#D9AA2C"/>
			<stop  offset="0.4165" style="stop-color:#E1BA46"/>
			<stop  offset="0.4658" style="stop-color:#E9CE65"/>
			<stop  offset="0.5011" style="stop-color:#F1E080"/>
			<stop  offset="0.573" style="stop-color:#E8C869"/>
			<stop  offset="0.6955" style="stop-color:#DAA549"/>
			<stop  offset="0.811" style="stop-color:#D18C31"/>
			<stop  offset="0.9157" style="stop-color:#CB7C23"/>
			<stop  offset="1" style="stop-color:#C9771E"/>
		</radialGradient>
		<path class="st5" d="M657.78,395.52c0,0,13.94,77.7-39.12,134.32c-53.06,56.62-168.49,47.95-168.49,47.95L657.78,395.52z"/>
		<path class="st1" d="M657.78,395.52c0,0-37.22,156.77-207.61,182.27L657.78,395.52z"/>
	</g>
	<g>
		
			<radialGradient id="SVGID_6_" cx="-8260.1279" cy="4934.4785" r="563.7242" gradientTransform="matrix(-0.1958 0.6135 -0.6135 -0.1958 2304.2686 6740.2856)" gradientUnits="userSpaceOnUse">
			<stop  offset="7.000000e-08" style="stop-color:#CD8D00"/>
			<stop  offset="0.1494" style="stop-color:#CE8F02"/>
			<stop  offset="0.234" style="stop-color:#D0940B"/>
			<stop  offset="0.3025" style="stop-color:#D49D18"/>
			<stop  offset="0.3623" style="stop-color:#D9AA2C"/>
			<stop  offset="0.4165" style="stop-color:#E1BA46"/>
			<stop  offset="0.4658" style="stop-color:#E9CE65"/>
			<stop  offset="0.5011" style="stop-color:#F1E080"/>
			<stop  offset="0.573" style="stop-color:#E8C869"/>
			<stop  offset="0.6955" style="stop-color:#DAA549"/>
			<stop  offset="0.811" style="stop-color:#D18C31"/>
			<stop  offset="0.9157" style="stop-color:#CB7C23"/>
			<stop  offset="1" style="stop-color:#C9771E"/>
		</radialGradient>
		<path class="st6" d="M686.72,397.38c0,0,63.79,46.49,64.6,124.09s-88.58,151.14-88.58,151.14L686.72,397.38z"/>
		<path class="st1" d="M686.72,397.38c0,0,81.5,139-23.98,275.22L686.72,397.38z"/>
	</g>
	<g>
		
			<radialGradient id="SVGID_7_" cx="-5395.9043" cy="-1157.942" r="563.7862" gradientTransform="matrix(0.2956 0.5721 -0.5721 0.2956 2004.6136 3877.3137)" gradientUnits="userSpaceOnUse">
			<stop  offset="7.000000e-08" style="stop-color:#CD8D00"/>
			<stop  offset="0.1494" style="stop-color:#CE8F02"/>
			<stop  offset="0.234" style="stop-color:#D0940B"/>
			<stop  offset="0.3025" style="stop-color:#D49D18"/>
			<stop  offset="0.3623" style="stop-color:#D9AA2C"/>
			<stop  offset="0.4165" style="stop-color:#E1BA46"/>
			<stop  offset="0.4658" style="stop-color:#E9CE65"/>
			<stop  offset="0.5011" style="stop-color:#F1E080"/>
			<stop  offset="0.573" style="stop-color:#E8C869"/>
			<stop  offset="0.6955" style="stop-color:#DAA549"/>
			<stop  offset="0.811" style="stop-color:#D18C31"/>
			<stop  offset="0.9157" style="stop-color:#CB7C23"/>
			<stop  offset="1" style="stop-color:#C9771E"/>
		</radialGradient>
		<path class="st7" d="M706.62,376.39c0,0,77.98-12.27,133.45,42c55.47,54.27,44.31,169.48,44.31,169.48L706.62,376.39z"/>
		<path class="st1" d="M706.62,376.39c0,0,155.93,40.58,177.76,211.48L706.62,376.39z"/>
	</g>
	<g>
		
			<radialGradient id="SVGID_8_" cx="792.0954" cy="-2657.7502" r="563.7017" gradientTransform="matrix(0.6014 0.2303 -0.2303 0.6014 -75.21 1569.7227)" gradientUnits="userSpaceOnUse">
			<stop  offset="7.000000e-08" style="stop-color:#CD8D00"/>
			<stop  offset="0.1494" style="stop-color:#CE8F02"/>
			<stop  offset="0.234" style="stop-color:#D0940B"/>
			<stop  offset="0.3025" style="stop-color:#D49D18"/>
			<stop  offset="0.3623" style="stop-color:#D9AA2C"/>
			<stop  offset="0.4165" style="stop-color:#E1BA46"/>
			<stop  offset="0.4658" style="stop-color:#E9CE65"/>
			<stop  offset="0.5011" style="stop-color:#F1E080"/>
			<stop  offset="0.573" style="stop-color:#E8C869"/>
			<stop  offset="0.6955" style="stop-color:#DAA549"/>
			<stop  offset="0.811" style="stop-color:#D18C31"/>
			<stop  offset="0.9157" style="stop-color:#CB7C23"/>
			<stop  offset="1" style="stop-color:#C9771E"/>
		</radialGradient>
		<path class="st8" d="M692.81,343.46c0,0,50.04-61.05,127.56-57.45c77.52,3.6,145.86,97.02,145.86,97.02L692.81,343.46z"/>
		<path class="st1" d="M692.81,343.46c0,0,143.4-73.48,273.42,39.57L692.81,343.46z"/>
	</g>
	<g>
		
			<radialGradient id="SVGID_9_" cx="2889.0813" cy="-647.8366" r="563.7219" gradientTransform="matrix(0.644 0 0 0.644 -940.8334 455.9276)" gradientUnits="userSpaceOnUse">
			<stop  offset="7.000000e-08" style="stop-color:#DB9600"/>
			<stop  offset="0.147" style="stop-color:#DC9802"/>
			<stop  offset="0.2303" style="stop-color:#DE9D0B"/>
			<stop  offset="0.2976" style="stop-color:#E2A618"/>
			<stop  offset="0.3565" style="stop-color:#E7B22C"/>
			<stop  offset="0.4098" style="stop-color:#EEC346"/>
			<stop  offset="0.4583" style="stop-color:#F6D765"/>
			<stop  offset="0.5011" style="stop-color:#FFED87"/>
			<stop  offset="0.5847" style="stop-color:#F4D06C"/>
			<stop  offset="0.7038" style="stop-color:#E8AD4B"/>
			<stop  offset="0.8162" style="stop-color:#DE9433"/>
			<stop  offset="0.918" style="stop-color:#D98425"/>
			<stop  offset="1" style="stop-color:#D77F20"/>
		</radialGradient>
		<path class="st9" d="M688.34,330.47c0,0,24.89-74.91,98.57-99.27c73.68-24.37,170.91,38.44,170.91,38.44L688.34,330.47z"/>
		<path class="st10" d="M688.34,330.47c0,0,107.63-119.9,269.49-60.84L688.34,330.47z"/>
	</g>
	<g>
		
			<radialGradient id="SVGID_10_" cx="7323.2012" cy="4982.0991" r="563.6576" gradientTransform="matrix(0.3689 -0.5279 0.5279 0.3689 -4773.6611 1994.9653)" gradientUnits="userSpaceOnUse">
			<stop  offset="7.000000e-08" style="stop-color:#DB9600"/>
			<stop  offset="0.147" style="stop-color:#DC9802"/>
			<stop  offset="0.2303" style="stop-color:#DE9D0B"/>
			<stop  offset="0.2976" style="stop-color:#E2A618"/>
			<stop  offset="0.3565" style="stop-color:#E7B22C"/>
			<stop  offset="0.4098" style="stop-color:#EEC346"/>
			<stop  offset="0.4583" style="stop-color:#F6D765"/>
			<stop  offset="0.5011" style="stop-color:#FFED87"/>
			<stop  offset="0.5847" style="stop-color:#F4D06C"/>
			<stop  offset="0.7038" style="stop-color:#E8AD4B"/>
			<stop  offset="0.8162" style="stop-color:#DE9433"/>
			<stop  offset="0.918" style="stop-color:#D98425"/>
			<stop  offset="1" style="stop-color:#D77F20"/>
		</radialGradient>
		<path class="st11" d="M664.5,323.72c0,0-47.14-63.32-24.9-137.67c22.23-74.35,129.41-118.07,129.41-118.07L664.5,323.72z"/>
		<path class="st10" d="M664.5,323.72c0,0-36.62-156.91,104.51-255.74L664.5,323.72z"/>
	</g>
	<g>
		
			<radialGradient id="SVGID_11_" cx="6055.9824" cy="10584.1924" r="563.6738" gradientTransform="matrix(-0.098 -0.6365 0.6365 -0.098 -5830.0005 5043.5332)" gradientUnits="userSpaceOnUse">
			<stop  offset="7.000000e-08" style="stop-color:#DB9600"/>
			<stop  offset="0.147" style="stop-color:#DC9802"/>
			<stop  offset="0.2303" style="stop-color:#DE9D0B"/>
			<stop  offset="0.2976" style="stop-color:#E2A618"/>
			<stop  offset="0.3565" style="stop-color:#E7B22C"/>
			<stop  offset="0.4098" style="stop-color:#EEC346"/>
			<stop  offset="0.4583" style="stop-color:#F6D765"/>
			<stop  offset="0.5011" style="stop-color:#FFED87"/>
			<stop  offset="0.5847" style="stop-color:#F4D06C"/>
			<stop  offset="0.7038" style="stop-color:#E8AD4B"/>
			<stop  offset="0.8162" style="stop-color:#DE9433"/>
			<stop  offset="0.918" style="stop-color:#D98425"/>
			<stop  offset="1" style="stop-color:#D77F20"/>
		</radialGradient>
		<path class="st12" d="M636.89,335.96c0,0-77.82-13.21-113.11-82.32c-35.29-69.11,11.99-174.77,11.99-174.77L636.89,335.96z"/>
		<path class="st10" d="M636.89,335.96c0,0-134.88-88.14-101.12-257.1L636.89,335.96z"/>
	</g>
	<g>
		
			<radialGradient id="SVGID_12_" cx="678.6889" cy="13897.4775" r="563.7575" gradientTransform="matrix(-0.5226 -0.3763 0.3763 -0.5226 -4603.4092 7982.6938)" gradientUnits="userSpaceOnUse">
			<stop  offset="7.000000e-08" style="stop-color:#DB9600"/>
			<stop  offset="0.147" style="stop-color:#DC9802"/>
			<stop  offset="0.2303" style="stop-color:#DE9D0B"/>
			<stop  offset="0.2976" style="stop-color:#E2A618"/>
			<stop  offset="0.3565" style="stop-color:#E7B22C"/>
			<stop  offset="0.4098" style="stop-color:#EEC346"/>
			<stop  offset="0.4583" style="stop-color:#F6D765"/>
			<stop  offset="0.5011" style="stop-color:#FFED87"/>
			<stop  offset="0.5847" style="stop-color:#F4D06C"/>
			<stop  offset="0.7038" style="stop-color:#E8AD4B"/>
			<stop  offset="0.8162" style="stop-color:#DE9433"/>
			<stop  offset="0.918" style="stop-color:#D98425"/>
			<stop  offset="1" style="stop-color:#D77F20"/>
		</radialGradient>
		<path class="st13" d="M629.79,362.92c0,0-63.97,46.24-138,22.97c-74.03-23.28-116.24-131.06-116.24-131.06L629.79,362.92z"/>
		<path class="st10" d="M629.79,362.92c0,0-157.41,34.41-254.24-108.09L629.79,362.92z"/>
	</g>
	<g>
		
			<radialGradient id="SVGID_13_" cx="-4212.4893" cy="12779.626" r="563.7172" gradientTransform="matrix(-0.642 0.0509 -0.0509 -0.642 -1617.1093 9118.4111)" gradientUnits="userSpaceOnUse">
			<stop  offset="7.000000e-08" style="stop-color:#DB9600"/>
			<stop  offset="0.147" style="stop-color:#DC9802"/>
			<stop  offset="0.2303" style="stop-color:#DE9D0B"/>
			<stop  offset="0.2976" style="stop-color:#E2A618"/>
			<stop  offset="0.3565" style="stop-color:#E7B22C"/>
			<stop  offset="0.4098" style="stop-color:#EEC346"/>
			<stop  offset="0.4583" style="stop-color:#F6D765"/>
			<stop  offset="0.5011" style="stop-color:#FFED87"/>
			<stop  offset="0.5847" style="stop-color:#F4D06C"/>
			<stop  offset="0.7038" style="stop-color:#E8AD4B"/>
			<stop  offset="0.8162" style="stop-color:#DE9433"/>
			<stop  offset="0.918" style="stop-color:#D98425"/>
			<stop  offset="1" style="stop-color:#D77F20"/>
		</radialGradient>
		<path class="st14" d="M644.44,390.35c0,0-18.9,76.64-90.42,106.76C482.5,527.22,380.6,472.3,380.6,472.3L644.44,390.35z"/>
		<path class="st10" d="M644.44,390.35c0,0-97.82,128.04-263.83,81.95L644.44,390.35z"/>
	</g>
	<g>
		
			<radialGradient id="SVGID_14_" cx="-7609.3965" cy="8239.5674" r="563.7625" gradientTransform="matrix(-0.4286 0.4806 -0.4806 -0.4286 1432.3885 7959.2642)" gradientUnits="userSpaceOnUse">
			<stop  offset="7.000000e-08" style="stop-color:#DB9600"/>
			<stop  offset="0.147" style="stop-color:#DC9802"/>
			<stop  offset="0.2303" style="stop-color:#DE9D0B"/>
			<stop  offset="0.2976" style="stop-color:#E2A618"/>
			<stop  offset="0.3565" style="stop-color:#E7B22C"/>
			<stop  offset="0.4098" style="stop-color:#EEC346"/>
			<stop  offset="0.4583" style="stop-color:#F6D765"/>
			<stop  offset="0.5011" style="stop-color:#FFED87"/>
			<stop  offset="0.5847" style="stop-color:#F4D06C"/>
			<stop  offset="0.7038" style="stop-color:#E8AD4B"/>
			<stop  offset="0.8162" style="stop-color:#DE9433"/>
			<stop  offset="0.918" style="stop-color:#D98425"/>
			<stop  offset="1" style="stop-color:#D77F20"/>
		</radialGradient>
		<path class="st15" d="M670.11,403.83c0,0,39.34,68.44,8.48,139.64c-30.85,71.2-142.44,101.98-142.44,101.98L670.11,403.83z"/>
		<path class="st10" d="M670.11,403.83c0,0,17.85,160.14-133.96,241.62L670.11,403.83z"/>
	</g>
	<g>
		
			<radialGradient id="SVGID_15_" cx="-7274.189" cy="1637.6212" r="563.7343" gradientTransform="matrix(0.0371 0.6429 -0.6429 0.0371 2324.1208 5222.7798)" gradientUnits="userSpaceOnUse">
			<stop  offset="7.000000e-08" style="stop-color:#DB9600"/>
			<stop  offset="0.147" style="stop-color:#DC9802"/>
			<stop  offset="0.2303" style="stop-color:#DE9D0B"/>
			<stop  offset="0.2976" style="stop-color:#E2A618"/>
			<stop  offset="0.3565" style="stop-color:#E7B22C"/>
			<stop  offset="0.4098" style="stop-color:#EEC346"/>
			<stop  offset="0.4583" style="stop-color:#F6D765"/>
			<stop  offset="0.5011" style="stop-color:#FFED87"/>
			<stop  offset="0.5847" style="stop-color:#F4D06C"/>
			<stop  offset="0.7038" style="stop-color:#E8AD4B"/>
			<stop  offset="0.8162" style="stop-color:#DE9433"/>
			<stop  offset="0.918" style="stop-color:#D98425"/>
			<stop  offset="1" style="stop-color:#D77F20"/>
		</radialGradient>
		<path class="st16" d="M696.83,392.76c0,0,76.22,20.54,104.79,92.69c28.57,72.15-28.53,172.84-28.53,172.84L696.83,392.76z"/>
		<path class="st10" d="M696.83,392.76c0,0,125.9,100.55,76.26,265.54L696.83,392.76z"/>
	</g>
	<g>
		
			<radialGradient id="SVGID_16_" cx="-2469.4646" cy="-1820.6437" r="563.7471" gradientTransform="matrix(0.4555 0.4552 -0.4552 0.4555 1363.6161 2267.6697)" gradientUnits="userSpaceOnUse">
			<stop  offset="7.000000e-08" style="stop-color:#DB9600"/>
			<stop  offset="0.147" style="stop-color:#DC9802"/>
			<stop  offset="0.2303" style="stop-color:#DE9D0B"/>
			<stop  offset="0.2976" style="stop-color:#E2A618"/>
			<stop  offset="0.3565" style="stop-color:#E7B22C"/>
			<stop  offset="0.4098" style="stop-color:#EEC346"/>
			<stop  offset="0.4583" style="stop-color:#F6D765"/>
			<stop  offset="0.5011" style="stop-color:#FFED87"/>
			<stop  offset="0.5847" style="stop-color:#F4D06C"/>
			<stop  offset="0.7038" style="stop-color:#E8AD4B"/>
			<stop  offset="0.8162" style="stop-color:#DE9433"/>
			<stop  offset="0.918" style="stop-color:#D98425"/>
			<stop  offset="1" style="stop-color:#D77F20"/>
		</radialGradient>
		<path class="st17" d="M697.63,357.06c0,0,70.56-35.39,139.9-0.54c69.34,34.85,93.72,148,93.72,148L697.63,357.06z"/>
		<path class="st10" d="M697.63,357.06c0,0,160.89-8.73,233.62,147.46L697.63,357.06z"/>
	</g>
	<linearGradient id="SVGID_17_" gradientUnits="userSpaceOnUse" x1="518.6869" y1="230.741" x2="846.0021" y2="528.3005">
		<stop  offset="0" style="stop-color:#FFB619"/>
		<stop  offset="0.0849" style="stop-color:#FEB61B"/>
		<stop  offset="0.133" style="stop-color:#FBB724"/>
		<stop  offset="0.1719" style="stop-color:#F6B931"/>
		<stop  offset="0.2057" style="stop-color:#EFBB45"/>
		<stop  offset="0.2151" style="stop-color:#ECBC4C"/>
		<stop  offset="0.3032" style="stop-color:#EDBF4F"/>
		<stop  offset="0.3705" style="stop-color:#F0C759"/>
		<stop  offset="0.4309" style="stop-color:#F5D469"/>
		<stop  offset="0.487" style="stop-color:#FDE780"/>
		<stop  offset="0.5011" style="stop-color:#FFED87"/>
		<stop  offset="0.5017" style="stop-color:#FFED87"/>
		<stop  offset="0.563" style="stop-color:#F3CB67"/>
		<stop  offset="0.628" style="stop-color:#E9AF4D"/>
		<stop  offset="0.6985" style="stop-color:#E19A39"/>
		<stop  offset="0.7762" style="stop-color:#DB8B2B"/>
		<stop  offset="0.8666" style="stop-color:#D88223"/>
		<stop  offset="1" style="stop-color:#D77F20"/>
	</linearGradient>
	<circle class="st18" cx="663.98" cy="362.83" r="134.27"/>
	<linearGradient id="SVGID_18_" gradientUnits="userSpaceOnUse" x1="586.153" y1="292.0739" x2="761.4822" y2="451.4642">
		<stop  offset="0" style="stop-color:#FFB619"/>
		<stop  offset="0.0849" style="stop-color:#FEB61B"/>
		<stop  offset="0.133" style="stop-color:#FBB724"/>
		<stop  offset="0.1719" style="stop-color:#F6B931"/>
		<stop  offset="0.2057" style="stop-color:#EFBB45"/>
		<stop  offset="0.2151" style="stop-color:#ECBC4C"/>
		<stop  offset="0.3032" style="stop-color:#EDBF4F"/>
		<stop  offset="0.3705" style="stop-color:#F0C759"/>
		<stop  offset="0.4309" style="stop-color:#F5D469"/>
		<stop  offset="0.487" style="stop-color:#FDE780"/>
		<stop  offset="0.5011" style="stop-color:#FFED87"/>
		<stop  offset="0.5017" style="stop-color:#FFED87"/>
		<stop  offset="0.563" style="stop-color:#F3CB67"/>
		<stop  offset="0.628" style="stop-color:#E9AF4D"/>
		<stop  offset="0.6985" style="stop-color:#E19A39"/>
		<stop  offset="0.7762" style="stop-color:#DB8B2B"/>
		<stop  offset="0.8666" style="stop-color:#D88223"/>
		<stop  offset="1" style="stop-color:#D77F20"/>
	</linearGradient>
	<circle class="st19" cx="663.98" cy="362.83" r="71.92"/>
	<g>
		<linearGradient id="SVGID_19_" gradientUnits="userSpaceOnUse" x1="605.6046" y1="252.5602" x2="724.0059" y2="476.2067">
			<stop  offset="0" style="stop-color:#D54CE0"/>
			<stop  offset="1" style="stop-color:#EFB5F9"/>
		</linearGradient>
		<circle class="st20" cx="663.98" cy="362.83" r="117.9"/>
		
			<radialGradient id="SVGID_20_" cx="842.6539" cy="-40.9317" r="398.2958" gradientTransform="matrix(0.6606 0 0 0.6606 153.9732 492.47)" gradientUnits="userSpaceOnUse">
			<stop  offset="0" style="stop-color:#EC6FED"/>
			<stop  offset="0.1049" style="stop-color:#E569E7"/>
			<stop  offset="0.2607" style="stop-color:#D158D5"/>
			<stop  offset="0.4481" style="stop-color:#B03CB8"/>
			<stop  offset="0.6585" style="stop-color:#821691"/>
			<stop  offset="0.6725" style="stop-color:#7F138E"/>
			<stop  offset="0.8629" style="stop-color:#9122A2"/>
			<stop  offset="0.9935" style="stop-color:#9727A9"/>
		</radialGradient>
		<circle class="st21" cx="663.98" cy="362.83" r="107.8"/>
		
			<radialGradient id="SVGID_21_" cx="864.3312" cy="-91.0535" r="398.3188" gradientTransform="matrix(0.5336 0 0 0.5336 240.4571 474.7002)" gradientUnits="userSpaceOnUse">
			<stop  offset="0" style="stop-color:#EC6FED"/>
			<stop  offset="0.1049" style="stop-color:#E569E7"/>
			<stop  offset="0.2607" style="stop-color:#D158D5"/>
			<stop  offset="0.4481" style="stop-color:#B03CB8"/>
			<stop  offset="0.6585" style="stop-color:#821691"/>
			<stop  offset="0.6725" style="stop-color:#7F138E"/>
			<stop  offset="0.8629" style="stop-color:#9122A2"/>
			<stop  offset="0.9935" style="stop-color:#9727A9"/>
		</radialGradient>
		<circle class="st22" cx="663.98" cy="343.23" r="87.08"/>
		<defs>
			<filter id="Adobe_OpacityMaskFilter" filterUnits="userSpaceOnUse" x="577.31" y="272.12" width="154.57" height="109.32">
				<feFlood  style="flood-color:white;flood-opacity:1" result="back"/>
				<feBlend  in="SourceGraphic" in2="back" mode="normal"/>
			</filter>
		</defs>
		<mask maskUnits="userSpaceOnUse" x="577.31" y="272.12" width="154.57" height="109.32" id="SVGID_22_">
			<g class="st23">
				<defs>
					<filter id="Adobe_OpacityMaskFilter_1_" filterUnits="userSpaceOnUse" x="577.31" y="272.12" width="154.57" height="109.32">
						<feFlood  style="flood-color:white;flood-opacity:1" result="back"/>
						<feBlend  in="SourceGraphic" in2="back" mode="normal"/>
					</filter>
				</defs>
				<mask maskUnits="userSpaceOnUse" x="577.31" y="272.12" width="154.57" height="109.32" id="SVGID_22_">
					<g class="st24">
					</g>
				</mask>
				
					<radialGradient id="SVGID_23_" cx="818.1434" cy="-175.7397" r="206.9208" gradientTransform="matrix(0.6606 0 0 0.6606 153.9732 492.47)" gradientUnits="userSpaceOnUse">
					<stop  offset="4.100000e-07" style="stop-color:#4D4D4D"/>
					<stop  offset="0.9883" style="stop-color:#FFFFFF"/>
				</radialGradient>
				<path class="st25" d="M731.88,321.39c0,0-29.63-70.49-105.92-42.84c-43.8,15.87-60.72,72.19-39.6,102.9
					c0,0-5.64-60.05,45.33-82.64C680.75,277.07,731.88,321.39,731.88,321.39z"/>
			</g>
		</mask>
		
			<radialGradient id="SVGID_24_" cx="818.1434" cy="-175.7397" r="206.9208" gradientTransform="matrix(0.6606 0 0 0.6606 153.9732 492.47)" gradientUnits="userSpaceOnUse">
			<stop  offset="4.100000e-07" style="stop-color:#F9BCFF"/>
			<stop  offset="0.9883" style="stop-color:#FCC6FF"/>
		</radialGradient>
		<path class="st26" d="M731.88,321.39c0,0-29.63-70.49-105.92-42.84c-43.8,15.87-60.72,72.19-39.6,102.9
			c0,0-5.64-60.05,45.33-82.64C680.75,277.07,731.88,321.39,731.88,321.39z"/>
		<path class="st27" d="M643.61,408.65c0,2.3-1.86,4.16-4.16,4.16c-2.3,0-4.16-1.86-4.16-4.16s1.86-4.16,4.16-4.16
			C641.75,404.49,643.61,406.35,643.61,408.65z"/>
		<path class="st28" d="M710.91,445.08c0,1.89-1.54,3.43-3.43,3.43c-1.89,0-3.43-1.54-3.43-3.43c0-1.89,1.54-3.43,3.43-3.43
			C709.38,441.65,710.91,443.18,710.91,445.08z"/>
		<path class="st27" d="M720.41,359.04c0,1.04-0.91,1.89-2.02,1.89c-1.12,0-2.02-0.84-2.02-1.89s0.91-1.89,2.02-1.89
			S720.41,357.99,720.41,359.04z"/>
		<path class="st27" d="M677.79,321.64c0.34,0.81-0.1,1.76-0.97,2.13c-0.87,0.36-1.85-0.01-2.19-0.82c-0.34-0.81,0.1-1.76,0.97-2.13
			C676.48,320.46,677.46,320.82,677.79,321.64z"/>
		<path class="st29" d="M713.67,401.68c0,1.04-0.91,1.89-2.02,1.89c-1.12,0-2.02-0.84-2.02-1.89s0.91-1.89,2.02-1.89
			S713.67,400.63,713.67,401.68z"/>
		<path class="st29" d="M662.24,382.45c0,0.57-0.5,1.04-1.11,1.04c-0.62,0-1.11-0.46-1.11-1.04c0-0.57,0.5-1.04,1.11-1.04
			C661.75,381.41,662.24,381.87,662.24,382.45z"/>
	</g>
</g>
</svg>
