<?xml version="1.0" encoding="utf-8"?>
<!-- Generator: Adobe Illustrator 25.2.1, SVG Export Plug-In . SVG Version: 6.00 Build 0)  -->
<svg version="1.1" id="Layer_1" xmlns="http://www.w3.org/2000/svg" xmlns:xlink="http://www.w3.org/1999/xlink" x="0px" y="0px"
	 viewBox="0 0 1366 768" style="enable-background:new 0 0 1366 768;" xml:space="preserve">
<style type="text/css">
	.st0{fill:url(#SVGID_1_);}
	.st1{fill:url(#SVGID_2_);}
	.st2{fill:url(#SVGID_3_);}
	.st3{fill:url(#SVGID_4_);}
	.st4{fill:url(#SVGID_5_);}
	.st5{fill:url(#SVGID_6_);}
	.st6{fill:url(#SVGID_7_);}
	.st7{fill:url(#SVGID_8_);}
	.st8{opacity:0.46;fill:#DCE4D6;}
	.st9{fill:url(#SVGID_9_);}
</style>
<g>
	
		<radialGradient id="SVGID_1_" cx="884.8959" cy="528.9258" r="233.9955" gradientTransform="matrix(0.9228 0 0 0.9228 -125.1377 -27.4765)" gradientUnits="userSpaceOnUse">
		<stop  offset="4.100000e-07" style="stop-color:#7FDE74"/>
		<stop  offset="1" style="stop-color:#FFFFE0"/>
	</radialGradient>
	<path class="st0" d="M883.72,407.56c-0.11,1.83-0.78,4.49-1.96,7.9c-17.34,50.62-144.08,263.99-176.81,281.26
		c-1.52,0.8-2.83,1.18-3.93,1.11c-0.75-0.06-1.62-0.33-2.62-0.81c-31.02-15.16-176.46-234.74-196.87-282.89
		c-1.79-4.23-2.62-7.13-2.33-8.46c3.72-16.69,112.11-177.14,115.5-182.15c0.06-0.08,0.08-0.12,0.08-0.12h150.19
		c0,0,0.01,0.01,0.02,0.03c1.78,2.27,111.99,143.22,118.44,180.34C883.69,405.19,883.79,406.45,883.72,407.56z"/>
	
		<radialGradient id="SVGID_2_" cx="1048.0948" cy="791.9699" r="467.2563" gradientTransform="matrix(0.9228 0 0 0.9228 -125.1377 -27.4765)" gradientUnits="userSpaceOnUse">
		<stop  offset="2.700000e-07" style="stop-color:#CDFF4A"/>
		<stop  offset="1" style="stop-color:#6DB863"/>
	</radialGradient>
	<path class="st1" d="M663.04,268.07c0,0-89.51,111.21-83.86,133.83c5.65,22.62,106.48,203.57,117.79,203.57
		c11.31,0,114.98-188.49,113.09-205.45c-1.88-16.96-81.72-131.94-81.72-131.94H663.04z"/>
	
		<radialGradient id="SVGID_3_" cx="808.0927" cy="522.8608" r="203.7701" gradientTransform="matrix(0.9228 0 0 0.9228 -125.1377 -27.4765)" gradientUnits="userSpaceOnUse">
		<stop  offset="7.000000e-08" style="stop-color:#65AB26"/>
		<stop  offset="0.3403" style="stop-color:#67AC27"/>
		<stop  offset="0.533" style="stop-color:#70AE2B"/>
		<stop  offset="0.6889" style="stop-color:#7DB231"/>
		<stop  offset="0.8251" style="stop-color:#91B739"/>
		<stop  offset="0.9472" style="stop-color:#AABE44"/>
		<stop  offset="1" style="stop-color:#B8C24A"/>
	</radialGradient>
	<path class="st2" d="M614.79,223.4c0,0-134.28,182.28-115.58,182.28c18.7,0,46.51-2.71,61.58-12.16
		c15.07-9.45,89.06-127.32,90.94-136.74C653.62,247.34,614.79,223.4,614.79,223.4z"/>
	
		<radialGradient id="SVGID_4_" cx="655.4136" cy="758.7137" r="263.4848" gradientTransform="matrix(0.9228 0 0 0.9228 -125.1377 -27.4765)" gradientUnits="userSpaceOnUse">
		<stop  offset="7.000000e-08" style="stop-color:#6FAB38"/>
		<stop  offset="0.36" style="stop-color:#6DA938"/>
		<stop  offset="0.5639" style="stop-color:#65A036"/>
		<stop  offset="0.7288" style="stop-color:#599334"/>
		<stop  offset="0.8719" style="stop-color:#477F32"/>
		<stop  offset="1" style="stop-color:#30662E"/>
	</radialGradient>
	<path class="st3" d="M698.4,697.02c-31.02-15.16-176.46-234.74-196.87-282.89c18.97-5.19,49.34-13.48,57.78-9.74
		c15.3,6.8,106.5,172.68,135.2,218.04C701.48,633.46,699.98,673.43,698.4,697.02z"/>
	
		<radialGradient id="SVGID_5_" cx="1020.5479" cy="815.5722" r="274.0188" gradientTransform="matrix(0.9228 0 0 0.9228 -125.1377 -27.4765)" gradientUnits="userSpaceOnUse">
		<stop  offset="7.000000e-08" style="stop-color:#DFD649"/>
		<stop  offset="0.1943" style="stop-color:#CCD045"/>
		<stop  offset="0.7333" style="stop-color:#9AC23B"/>
		<stop  offset="1" style="stop-color:#87BD37"/>
	</radialGradient>
	<path class="st4" d="M881.77,415.46c-17.34,50.62-144.08,263.99-176.81,281.26c-1.8-19.3-0.21-65.64,1.38-79.2
		c1.89-16.09,107.44-203.5,114.04-211.85C825.56,399.11,865.07,410.35,881.77,415.46z"/>
	
		<radialGradient id="SVGID_6_" cx="1335.5272" cy="692.7744" r="497.5258" gradientTransform="matrix(0.9228 0 0 0.9228 -125.1377 -27.4765)" gradientUnits="userSpaceOnUse">
		<stop  offset="0.1788" style="stop-color:#65AB26"/>
		<stop  offset="0.3079" style="stop-color:#68AD2A"/>
		<stop  offset="0.4437" style="stop-color:#72B537"/>
		<stop  offset="0.5827" style="stop-color:#81C14C"/>
		<stop  offset="0.7238" style="stop-color:#98D169"/>
		<stop  offset="0.8651" style="stop-color:#B4E78F"/>
		<stop  offset="1" style="stop-color:#D4FFBA"/>
	</radialGradient>
	<path class="st5" d="M883.44,403.77c-15.8-1.99-59.36-7.72-67.78-11.29c-10.34-4.36-76.01-125.87-80.41-131.33
		c-4.4-5.45,29.73-37.75,29.73-37.75s0.01,0.01,0.02,0.03C766.77,225.69,876.98,366.64,883.44,403.77z"/>
	<linearGradient id="SVGID_7_" gradientUnits="userSpaceOnUse" x1="545.0695" y1="175.8606" x2="837.8211" y2="175.8606">
		<stop  offset="7.000000e-08" style="stop-color:#B53900"/>
		<stop  offset="0.1018" style="stop-color:#B63B02"/>
		<stop  offset="0.1594" style="stop-color:#B94408"/>
		<stop  offset="0.206" style="stop-color:#BF5112"/>
		<stop  offset="0.2468" style="stop-color:#C76521"/>
		<stop  offset="0.2837" style="stop-color:#D27F34"/>
		<stop  offset="0.3178" style="stop-color:#DF9E4C"/>
		<stop  offset="0.3492" style="stop-color:#EEC367"/>
		<stop  offset="0.3787" style="stop-color:#FFED87"/>
		<stop  offset="0.4501" style="stop-color:#FFDB76"/>
		<stop  offset="0.5789" style="stop-color:#FFC15D"/>
		<stop  offset="0.7115" style="stop-color:#FFAF4B"/>
		<stop  offset="0.8492" style="stop-color:#FFA440"/>
		<stop  offset="1" style="stop-color:#FFA03D"/>
	</linearGradient>
	<path class="st6" d="M837.82,139.9c0,0-91.58,135.72-114.2,139.48c-11.8,1.97-23.59,2.4-32.18,2.09
		c-8.59,0.31-20.38-0.12-32.18-2.09c-22.62-3.77-114.2-139.48-114.2-139.48l56.81-69.74h179.14L837.82,139.9z"/>
	<linearGradient id="SVGID_8_" gradientUnits="userSpaceOnUse" x1="576.2432" y1="212.5827" x2="810.0908" y2="212.5827">
		<stop  offset="7.000000e-08" style="stop-color:#DB9600"/>
		<stop  offset="0.147" style="stop-color:#DC9802"/>
		<stop  offset="0.2303" style="stop-color:#DE9D0B"/>
		<stop  offset="0.2976" style="stop-color:#E2A618"/>
		<stop  offset="0.3565" style="stop-color:#E7B22C"/>
		<stop  offset="0.4098" style="stop-color:#EEC346"/>
		<stop  offset="0.4583" style="stop-color:#F6D765"/>
		<stop  offset="0.5011" style="stop-color:#FFED87"/>
		<stop  offset="0.5017" style="stop-color:#FFED87"/>
		<stop  offset="0.563" style="stop-color:#F3CB67"/>
		<stop  offset="0.628" style="stop-color:#E9AF4D"/>
		<stop  offset="0.6985" style="stop-color:#E19A39"/>
		<stop  offset="0.7762" style="stop-color:#DB8B2B"/>
		<stop  offset="0.8666" style="stop-color:#D88223"/>
		<stop  offset="1" style="stop-color:#D77F20"/>
	</linearGradient>
	<path class="st7" d="M810.09,143.67l-86.47,135.71c-11.8,1.97-23.59,2.4-32.18,2.09c-8.59,0.31-20.38-0.12-32.18-2.09
		c0,0-100.55-139.26-80.34-135.71C599.14,147.23,810.09,143.67,810.09,143.67z"/>
	<polygon class="st8" points="600.63,447.57 765.38,313.58 623.87,502.33 	"/>
	<polygon class="st8" points="635.3,521.83 765.38,331.09 786.18,355.28 669.08,568.13 	"/>
	<linearGradient id="SVGID_9_" gradientUnits="userSpaceOnUse" x1="578.762" y1="110.4859" x2="810.1338" y2="110.4859">
		<stop  offset="7.000000e-08" style="stop-color:#DB9600"/>
		<stop  offset="0.1111" style="stop-color:#DC9802"/>
		<stop  offset="0.174" style="stop-color:#DE9D0B"/>
		<stop  offset="0.2249" style="stop-color:#E2A618"/>
		<stop  offset="0.2694" style="stop-color:#E7B22C"/>
		<stop  offset="0.3097" style="stop-color:#EEC346"/>
		<stop  offset="0.3464" style="stop-color:#F6D765"/>
		<stop  offset="0.3787" style="stop-color:#FFED87"/>
		<stop  offset="0.4262" style="stop-color:#F9DC77"/>
		<stop  offset="0.5331" style="stop-color:#EDBA58"/>
		<stop  offset="0.6429" style="stop-color:#E3A03F"/>
		<stop  offset="0.7554" style="stop-color:#DC8E2E"/>
		<stop  offset="0.8722" style="stop-color:#D88323"/>
		<stop  offset="1" style="stop-color:#D77F20"/>
	</linearGradient>
	<path class="st9" d="M616.64,70.16c0,0-40.78,65.97-37.71,73.51c3.06,7.54,234.96,11.31,231.16,0
		c-3.8-11.31-41.49-73.51-41.49-73.51H616.64z"/>
</g>
</svg>
