<?xml version="1.0" encoding="utf-8"?>
<!-- Generator: Adobe Illustrator 25.2.1, SVG Export Plug-In . SVG Version: 6.00 Build 0)  -->
<svg version="1.1" id="Layer_1" xmlns="http://www.w3.org/2000/svg" xmlns:xlink="http://www.w3.org/1999/xlink" x="0px" y="0px"
	 viewBox="0 0 1366 768" style="enable-background:new 0 0 1366 768;" xml:space="preserve">
<style type="text/css">
	.st0{fill:#D3CDD4;}
	.st1{filter:url(#Adobe_OpacityMaskFilter);}
	.st2{filter:url(#Adobe_OpacityMaskFilter_1_);}
	.st3{mask:url(#SVGID_1_);fill:url(#SVGID_2_);}
	.st4{fill:url(#SVGID_3_);}
	.st5{fill:url(#SVGID_4_);}
	.st6{fill:url(#SVGID_5_);}
	.st7{fill:#BFE0F4;}
	.st8{fill:#D5DDE9;}
	.st9{fill:url(#SVGID_6_);}
	.st10{fill:#F4F4ED;}
	.st11{fill:url(#SVGID_7_);}
	.st12{fill:url(#SVGID_8_);}
	.st13{fill:url(#SVGID_9_);}
	.st14{fill:url(#SVGID_10_);}
	.st15{fill:url(#SVGID_11_);}
</style>
<g>
	<path class="st0" d="M780.21,212.54c-3.59-9.58-50.29-102.65-87.33-102.65s-92.98,98.56-96.58,108.14s1.43,382.07,7.82,397.59
		c6.39,15.51,67.69,99.78,74.71,108.9c7.02,9.13,14.05,7.6,14.05,7.6s7.02,1.52,14.05-7.6c7.02-9.13,68.32-93.39,74.71-108.9
		C788.03,600.11,783.8,222.12,780.21,212.54z"/>
	<defs>
		<filter id="Adobe_OpacityMaskFilter" filterUnits="userSpaceOnUse" x="655.07" y="639.64" width="69.92" height="80.34">
			<feFlood  style="flood-color:white;flood-opacity:1" result="back"/>
			<feBlend  in="SourceGraphic" in2="back" mode="normal"/>
		</filter>
	</defs>
	<mask maskUnits="userSpaceOnUse" x="655.07" y="639.64" width="69.92" height="80.34" id="SVGID_1_">
		<g class="st1">
			<defs>
				<filter id="Adobe_OpacityMaskFilter_1_" filterUnits="userSpaceOnUse" x="655.07" y="639.64" width="69.92" height="80.34">
					<feFlood  style="flood-color:white;flood-opacity:1" result="back"/>
					<feBlend  in="SourceGraphic" in2="back" mode="normal"/>
				</filter>
			</defs>
			<mask maskUnits="userSpaceOnUse" x="655.07" y="639.64" width="69.92" height="80.34" id="SVGID_1_">
				<g class="st2">
				</g>
			</mask>
			<linearGradient id="SVGID_2_" gradientUnits="userSpaceOnUse" x1="692.5782" y1="720.0422" x2="689.9904" y2="638.5284">
				<stop  offset="1.300000e-07" style="stop-color:#FFFFFF"/>
				<stop  offset="0.2492" style="stop-color:#FDFDFD"/>
				<stop  offset="0.3864" style="stop-color:#F5F5F5"/>
				<stop  offset="0.4963" style="stop-color:#E7E7E7"/>
				<stop  offset="0.5919" style="stop-color:#D3D3D3"/>
				<stop  offset="0.6781" style="stop-color:#BABABA"/>
				<stop  offset="0.7575" style="stop-color:#9B9B9B"/>
				<stop  offset="0.8318" style="stop-color:#767676"/>
				<stop  offset="0.902" style="stop-color:#4B4B4B"/>
				<stop  offset="0.9666" style="stop-color:#1C1C1C"/>
				<stop  offset="1" style="stop-color:#000000"/>
			</linearGradient>
			<path class="st3" d="M655.07,639.64c0,2.74,29.69,78.48,39.27,80.31c9.58,1.83,30.65-80.31,30.65-80.31H655.07z"/>
		</g>
	</mask>
	<linearGradient id="SVGID_3_" gradientUnits="userSpaceOnUse" x1="692.5782" y1="720.0422" x2="689.9904" y2="638.5284">
		<stop  offset="1.300000e-07" style="stop-color:#C1BED2"/>
		<stop  offset="0.4459" style="stop-color:#C3C0D3"/>
		<stop  offset="0.6913" style="stop-color:#C9C8D8"/>
		<stop  offset="0.8872" style="stop-color:#D2D6E0"/>
		<stop  offset="1" style="stop-color:#DBE2E7"/>
	</linearGradient>
	<path class="st4" d="M655.07,639.64c0,2.74,29.69,78.48,39.27,80.31c9.58,1.83,30.65-80.31,30.65-80.31H655.07z"/>
	<linearGradient id="SVGID_4_" gradientUnits="userSpaceOnUse" x1="695.3424" y1="596.1583" x2="680.8949" y2="141.0592">
		<stop  offset="0" style="stop-color:#97B9EF"/>
		<stop  offset="0.26" style="stop-color:#9AC0EF"/>
		<stop  offset="0.645" style="stop-color:#A2D4F1"/>
		<stop  offset="0.6725" style="stop-color:#A3D6F1"/>
		<stop  offset="0.7776" style="stop-color:#AEDDF0"/>
		<stop  offset="0.8996" style="stop-color:#B5E1F0"/>
		<stop  offset="0.9001" style="stop-color:#B6E1F0"/>
		<stop  offset="0.9114" style="stop-color:#C7E1EC"/>
		<stop  offset="0.9254" style="stop-color:#D2E2E9"/>
		<stop  offset="0.9452" style="stop-color:#D9E2E7"/>
		<stop  offset="1" style="stop-color:#DBE2E7"/>
	</linearGradient>
	<path class="st5" d="M623.03,634.95c11.84,5.25,27.25,11.04,39.45,12c23.09,1.82,69.12,1.82,88.44,0.01
		c11.45-17.12,21.06-32.26,23.32-37.92c5.99-14.99,2.03-380.2-1.34-389.45c-3.37-9.26-47.2-99.18-81.96-99.18
		c-34.76,0-87.27,95.23-90.64,104.49c-3.37,9.26,1.34,369.16,7.34,384.15C609.35,613.33,615.28,623.05,623.03,634.95z"/>
	<linearGradient id="SVGID_5_" gradientUnits="userSpaceOnUse" x1="599.1732" y1="386.8993" x2="673.8442" y2="386.8993">
		<stop  offset="0" style="stop-color:#E3E8EF"/>
		<stop  offset="0.2051" style="stop-color:#DCE1EF"/>
		<stop  offset="0.5086" style="stop-color:#CACDF0"/>
		<stop  offset="0.6725" style="stop-color:#BDBFF1"/>
		<stop  offset="0.6914" style="stop-color:#BAC1F1"/>
		<stop  offset="0.8693" style="stop-color:#A6D5F0"/>
		<stop  offset="0.989" style="stop-color:#9FDCF0"/>
	</linearGradient>
	<path class="st6" d="M648.37,249.46c-1.08-52.45,12.07-94.26,25.47-122.92c-32.69,21.19-70.69,90.53-73.55,98.36
		c-3.37,9.26,1.34,369.16,7.34,384.15c1.71,4.29,7.65,14.01,15.39,25.91c11.84,5.25,27.25,11.04,39.45,12
		c1.38,0.11,2.84,0.21,4.38,0.31C652.31,529.26,649.95,326.14,648.37,249.46z"/>
	<path class="st7" d="M649.48,215.07c-2.37-0.39-5.94,5.02-5.9,33.14c0.16,104.81,12.54,358.59,18.18,358.59
		c5.81,0-4.79-262.37-6.7-359.11C654.59,224.03,651.98,215.48,649.48,215.07z"/>
	<path class="st8" d="M734.39,205.21c2.63-6.67,14.37,3.65,15.33,34.68c0.96,31.03,5.75,357.74,4.79,366.86
		c-0.96,9.13-12.45,40.15-15.33,30.12C736.31,626.83,731.52,212.51,734.39,205.21z"/>
	<linearGradient id="SVGID_6_" gradientUnits="userSpaceOnUse" x1="595.1075" y1="261.2522" x2="782.8212" y2="261.2522">
		<stop  offset="0" style="stop-color:#97B9EF"/>
		<stop  offset="0.26" style="stop-color:#9AC0EF"/>
		<stop  offset="0.645" style="stop-color:#A2D4F1"/>
		<stop  offset="0.6725" style="stop-color:#A3D6F1"/>
		<stop  offset="0.7776" style="stop-color:#AEDDF0"/>
		<stop  offset="0.8996" style="stop-color:#B5E1F0"/>
		<stop  offset="0.9001" style="stop-color:#B6E1F0"/>
		<stop  offset="0.9114" style="stop-color:#C7E1EC"/>
		<stop  offset="0.9254" style="stop-color:#D2E2E9"/>
		<stop  offset="0.9452" style="stop-color:#D9E2E7"/>
		<stop  offset="1" style="stop-color:#DBE2E7"/>
	</linearGradient>
	<polygon class="st9" points="781.95,244.65 595.27,244.65 595.11,277.49 595.11,277.85 782.82,277.85 	"/>
	<rect x="584.2" y="238.76" class="st10" width="205.93" height="33.2"/>
	<linearGradient id="SVGID_7_" gradientUnits="userSpaceOnUse" x1="584.2009" y1="255.3594" x2="648.8073" y2="255.3594">
		<stop  offset="2.700000e-07" style="stop-color:#93938F"/>
		<stop  offset="0.2145" style="stop-color:#8D8D89"/>
		<stop  offset="0.4922" style="stop-color:#7D7D7A"/>
		<stop  offset="0.8033" style="stop-color:#636360"/>
		<stop  offset="1" style="stop-color:#4E4E4C"/>
	</linearGradient>
	<rect x="584.2" y="238.76" class="st11" width="64.61" height="33.2"/>
	<linearGradient id="SVGID_8_" gradientUnits="userSpaceOnUse" x1="744.069" y1="255.3594" x2="790.1321" y2="255.3594">
		<stop  offset="0" style="stop-color:#9B9B96"/>
		<stop  offset="0.6241" style="stop-color:#BEBEB9"/>
		<stop  offset="0.9955" style="stop-color:#CECEC8"/>
	</linearGradient>
	<rect x="744.07" y="238.76" class="st12" width="46.06" height="33.2"/>
	<linearGradient id="SVGID_9_" gradientUnits="userSpaceOnUse" x1="658.4922" y1="72.6413" x2="729.4042" y2="72.6413">
		<stop  offset="2.700000e-07" style="stop-color:#93938F"/>
		<stop  offset="0.2145" style="stop-color:#8D8D89"/>
		<stop  offset="0.4922" style="stop-color:#7D7D7A"/>
		<stop  offset="0.8033" style="stop-color:#636360"/>
		<stop  offset="1" style="stop-color:#4E4E4C"/>
	</linearGradient>
	<path class="st13" d="M693.95,38.25c-19.58,0-35.46,15.4-35.46,34.39s15.87,34.39,35.46,34.39c19.58,0,35.46-15.4,35.46-34.39
		S713.53,38.25,693.95,38.25z M693.95,98.36c-14.65,0-26.52-11.52-26.52-25.72s11.87-25.72,26.52-25.72
		c14.65,0,26.52,11.52,26.52,25.72S708.6,98.36,693.95,98.36z"/>
	<linearGradient id="SVGID_10_" gradientUnits="userSpaceOnUse" x1="658.2194" y1="70.1653" x2="730.4052" y2="70.1653">
		<stop  offset="2.700000e-07" style="stop-color:#9B9B96"/>
		<stop  offset="0.0564" style="stop-color:#ACACA7"/>
		<stop  offset="0.1555" style="stop-color:#C4C4BE"/>
		<stop  offset="0.2611" style="stop-color:#D5D5CE"/>
		<stop  offset="0.3762" style="stop-color:#DFDFD8"/>
		<stop  offset="0.519" style="stop-color:#E2E2DB"/>
		<stop  offset="0.7431" style="stop-color:#DFDFD8"/>
		<stop  offset="0.9242" style="stop-color:#D5D5CE"/>
		<stop  offset="1" style="stop-color:#CECEC8"/>
	</linearGradient>
	<path class="st14" d="M694.31,35.78c-19.93,0-36.09,15.4-36.09,34.39c0,18.99,16.16,34.39,36.09,34.39
		c19.93,0,36.09-15.4,36.09-34.39C730.41,51.17,714.25,35.78,694.31,35.78z M694.31,95.89c-14.91,0-27-11.52-27-25.72
		c0-14.21,12.09-25.72,27-25.72c14.91,0,27,11.52,27,25.72C721.31,84.37,709.22,95.89,694.31,95.89z"/>
	<linearGradient id="SVGID_11_" gradientUnits="userSpaceOnUse" x1="675.33" y1="184.7113" x2="713.3286" y2="184.7113">
		<stop  offset="2.700000e-07" style="stop-color:#9B9B96"/>
		<stop  offset="0.0564" style="stop-color:#ACACA7"/>
		<stop  offset="0.1555" style="stop-color:#C4C4BE"/>
		<stop  offset="0.2611" style="stop-color:#D5D5CE"/>
		<stop  offset="0.3762" style="stop-color:#DFDFD8"/>
		<stop  offset="0.519" style="stop-color:#E2E2DB"/>
		<stop  offset="0.7431" style="stop-color:#DFDFD8"/>
		<stop  offset="0.9242" style="stop-color:#D5D5CE"/>
		<stop  offset="1" style="stop-color:#CECEC8"/>
	</linearGradient>
	<path class="st15" d="M693.31,93.13c-2.79,0-3.28,1.42-3.86,5.76c-4.28,31.78-19.99,158.06-11.77,173.07
		c2.9,5.29,29.61,6.25,33.44,0c7.83-12.77-7.13-139.32-13.2-172.65C697.1,94.89,695.91,93.13,693.31,93.13z"/>
</g>
</svg>
