<?xml version="1.0" encoding="utf-8"?>
<!-- Generator: Adobe Illustrator 25.2.1, SVG Export Plug-In . SVG Version: 6.00 Build 0)  -->
<svg version="1.1" id="Layer_1" xmlns="http://www.w3.org/2000/svg" xmlns:xlink="http://www.w3.org/1999/xlink" x="0px" y="0px"
	 viewBox="0 0 1366 768" style="enable-background:new 0 0 1366 768;" xml:space="preserve">
<style type="text/css">
	.st0{fill:url(#SVGID_1_);}
	.st1{fill:url(#SVGID_2_);}
	.st2{fill:url(#SVGID_3_);}
	.st3{fill:#EDDC7E;}
	.st4{fill:url(#SVGID_4_);}
	.st5{fill:#FF2333;}
	.st6{fill:url(#SVGID_5_);}
	.st7{fill:url(#SVGID_6_);}
	.st8{fill:url(#SVGID_7_);}
	.st9{filter:url(#Adobe_OpacityMaskFilter);}
	.st10{filter:url(#Adobe_OpacityMaskFilter_1_);}
	.st11{mask:url(#SVGID_8_);fill:url(#SVGID_9_);}
	.st12{opacity:0.94;fill:url(#SVGID_10_);}
	.st13{fill:#ED866C;}
	.st14{fill:#ED9680;}
	.st15{fill:#EDA28F;}
	.st16{fill:url(#SVGID_11_);}
</style>
<g>
	<linearGradient id="SVGID_1_" gradientUnits="userSpaceOnUse" x1="709.6203" y1="28.6814" x2="656.2471" y2="71.096">
		<stop  offset="0.2153" style="stop-color:#8F3400"/>
		<stop  offset="0.3751" style="stop-color:#AC5E1A"/>
		<stop  offset="0.5745" style="stop-color:#CB8B36"/>
		<stop  offset="0.7523" style="stop-color:#E1AC4A"/>
		<stop  offset="0.9002" style="stop-color:#EFC057"/>
		<stop  offset="1" style="stop-color:#F4C75B"/>
	</linearGradient>
	<path class="st0" d="M656.72,61.83c-0.22-1.23-0.35-2.5-0.35-3.79c0-11.37,9.05-20.58,20.22-20.58s20.22,9.22,20.22,20.58
		c0,2.64-0.49,5.17-1.39,7.49l6.99,0.67c0.78-2.58,1.21-5.32,1.21-8.16c0-15.2-12.1-27.52-27.03-27.52
		c-14.93,0-27.03,12.32-27.03,27.52c0,1.06,0.06,2.1,0.18,3.12L656.72,61.83z"/>
	<linearGradient id="SVGID_2_" gradientUnits="userSpaceOnUse" x1="649.3561" y1="56.0601" x2="704.3915" y2="56.0601">
		<stop  offset="2.700000e-07" style="stop-color:#CC4926"/>
		<stop  offset="1" style="stop-color:#FCD75F"/>
	</linearGradient>
	<path class="st1" d="M676.87,28.54c-15.2,0-27.52,12.32-27.52,27.52s12.32,27.52,27.52,27.52c15.2,0,27.52-12.32,27.52-27.52
		S692.07,28.54,676.87,28.54z M676.87,76.64c-11.37,0-20.58-9.22-20.58-20.58c0-11.37,9.22-20.58,20.58-20.58
		c11.37,0,20.58,9.22,20.58,20.58C697.46,67.43,688.24,76.64,676.87,76.64z"/>
	<linearGradient id="SVGID_3_" gradientUnits="userSpaceOnUse" x1="502.1263" y1="156.7157" x2="900.4244" y2="651.5237">
		<stop  offset="7.000000e-08" style="stop-color:#DB9600"/>
		<stop  offset="0.147" style="stop-color:#DC9802"/>
		<stop  offset="0.2303" style="stop-color:#DE9D0B"/>
		<stop  offset="0.2976" style="stop-color:#E2A618"/>
		<stop  offset="0.3565" style="stop-color:#E7B22C"/>
		<stop  offset="0.4098" style="stop-color:#EEC346"/>
		<stop  offset="0.4583" style="stop-color:#F6D765"/>
		<stop  offset="0.5011" style="stop-color:#FFED87"/>
		<stop  offset="0.5847" style="stop-color:#F4D06C"/>
		<stop  offset="0.7038" style="stop-color:#E8AD4B"/>
		<stop  offset="0.8162" style="stop-color:#DE9433"/>
		<stop  offset="0.918" style="stop-color:#D98425"/>
		<stop  offset="1" style="stop-color:#D77F20"/>
	</linearGradient>
	<path class="st2" d="M996.25,359.68c-0.9,0.61-2.18,0.9-3.72,1h-0.02c-7.51,0.43-21.31-3.8-28.85,2.23
		c-2.69,2.15-6.7,5.2-11.68,8.61c-15.99,10.99-41.96,25.85-66.1,27.43c-19.25,1.26-37.26,1.97-49.73,3.55h-0.02
		c-7.53,0.96-13.04,2.25-15.58,4.17h-0.02c-0.17,0.12-0.32,0.25-0.46,0.38c-5.79,5.44,22.23,27.33,34.89,29.34
		c12.65,2.01,34.14-2.35,39.07,4.15c0.6,0.78,0.99,1.7,1.17,2.72c1.38,7.42-8.11,20.11-30.02,23.81
		c-24.9,4.2-58.3-17.75-63.63-12.96c-0.98,0.88-1.83,2.33-2.44,4.18c-2.7,8.25-0.65,24.54,15.97,34.22
		c20.35,11.86,34.02,20.88,39.8,33.82c7.23,16.15-0.76,44.33,12.28,59.3c13.05,14.96,33.91,21.3,30.1,28.85
		c-0.07,0.14-0.15,0.28-0.25,0.41c-4.76,7.07-36.01,4.77-51.15-14.86c-15.43-19.99-21.84-63.65-36.59-69.28
		c-21.59-8.24-40.62-33.33-49.57-36.91c-1.77-0.71-3.15-0.58-4.07,0.71c-5.56,7.77,10.4,45.39,1.57,71.33
		c-4.02,11.82-18.18,27.2-24.22,26.8c-0.61-0.04-1.14-0.24-1.57-0.62c-4.64-4.17,5.61-21.96,1.44-36.82
		c-4.12-14.73-15.66-45.98-22.31-43.44c-0.06,0.02-0.12,0.04-0.18,0.07c-6.62,3.17-18.93,67.31-20.09,86.96
		c-1.16,19.64,7,42.22,3.4,66.96c-1.44,9.89-21.04,49.61-31.56,40.79c-0.28-0.23-0.55-0.5-0.82-0.8
		c-10.29-11.76,3.57-31.98,3.22-46.5c-0.69-28.73-18.49-62.05-18.26-82.3c0.14-12.62,7.75-56.23,2.89-65.66
		c-0.56-1.09-1.29-1.73-2.22-1.8c-8.94-0.69-33.19,23.53-37.46,37.06c-4.27,13.52,2.7,36.9-3.7,37.68
		c-0.28,0.03-0.59,0.03-0.92-0.02c-7.08-1.02-23.62-20.78-17.54-49.75c6.09-29.01,18.47-46.34,11.7-48.4
		c-0.3-0.09-0.65-0.15-1.04-0.18c-8.95-0.68-36.08,14.43-46.4,31.64c-10.32,17.21-29.05,43.13-52.08,53.01
		c-23.03,9.89-33.83,37.8-40.38,37.41c-2.47-0.15-3.78-5.12-4.31-11.75c-0.87-11,0.45-26.57,2.36-32.32
		c6.14-18.47,37.75-35.93,49.52-50.95c9.94-12.69,26.09-42.17,40.61-56.46c1.5-1.47,2.97-2.79,4.43-3.89
		c1.13-0.89,2.26-1.64,3.36-2.26c2.36-1.32,4.08-2.39,5.25-3.23c0.04-0.04,0.08-0.07,0.13-0.09c1.94-1.42,2.28-2.2,1.44-2.47
		c-1.99-0.66-10.64,1.53-19.84,4.41c-15.37,4.82-64.37,8.94-76.87-14.9c-3.16-6.04-3.35-9.01-1.77-10.31l0.02-0.01
		c0.41-0.34,0.96-0.57,1.61-0.68l0.07-0.02c5.14-0.97,16.46,3.73,22.79,1.5c10.2-3.6,52.71-21.5,52.31-29.73
		c-0.01-0.22-0.04-0.42-0.1-0.62c-1.89-7.36-31.01-3.02-51.16-12.66c-20.71-9.9-48,0.34-72.12-0.11
		c-24.24-0.46-56.91-20.87-56.86-35.07c0.01-1.64,0.52-2.88,1.45-3.78c7.08-6.94,38.2,5.34,50.44,2.8
		c13.84-2.86,52.7-23.53,71.02-18.66c17.92,4.75,54.8,16.82,59.94,5.32c0.13-0.26,0.23-0.53,0.31-0.82
		c3.75-12.86-29.01-47.61-55.91-49.99c-5.75-0.51-8.95-2.27-9.88-4.41c-1.72-3.95,4.25-9.19,16.01-10.23
		c18.13-1.61,37.12,0.86,49.02,11.24c10.74,9.36,19,9.56,23.59,5.73c0.5-0.41,0.95-0.87,1.36-1.37c7.19-8.79-37.6-49.89-48.78-59.17
		c-11.17-9.28,1.81-55.11-11.91-65.86c-9.95-7.8-24.8-17.66-27.9-23.97v-0.01c-1.17-2.4-0.65-4.27,2.47-5.33
		c11.36-3.85,34.41,1.03,49.61,24.01s14.58,36.62,22.12,50.05c7.83,13.96,30.99,36.89,45.62,35.7c1.91-0.15,3.29-0.72,4.26-1.63
		c6.45-5.96-5.7-26.79-5.78-40.14c-0.1-15.36,14.75-34.3,26.31-31.57c0,0,8.14,62.25,29.91,61.39c1.21-0.05,2.36-0.27,3.44-0.66
		c18.23-6.47,17.27-58.28,10.12-71.92c-7.58-14.44-16.4-37.01-7.64-62.9c8.77-25.89,14.19-34.82,21.53-32.76
		c0.13,0.04,0.25,0.09,0.37,0.16c6.73,3.47,0.2,46.82,12.86,65.02c12.89,18.54,20.92,31.15,15.23,57.26
		c-5.7,26.11,5.4,48.99,10.46,51.92c0.31,0.18,0.72,0.19,1.21,0.03c7.64-2.25,36.03-41.45,38.29-63.93c0.22-2.21,0.67-3.65,1.3-4.42
		c6.08-7.63,28.7,48.52,16.87,61.55c-13.04,14.36-14.32,28.11-9.24,31.04c0.07,0.04,0.14,0.07,0.23,0.1
		c5.94,1.92,44.7-30.8,56.81-41.45c12.28-10.8,41.75,3.06,61.74-7.5c20-10.55,27.14-34.47,35.58-33.13c0.14,0.02,0.28,0.06,0.41,0.1
		c7.82,2.85,1.54,49.99-32.17,59.61c-34.28,9.77-91.1,48-86.04,55.66c0.02,0.03,0.05,0.07,0.07,0.1c5.2,7.45,27.89-4.72,51.57-2.04
		c24.39,2.75,35.41,14.16,35.03,20.19c-0.07,1.13-0.54,2.06-1.38,2.72c-5.4,4.2-20.72,0.44-34.68,3.16
		c-8.77,1.71-32.07,21.49-31.29,27.9c0.01,0.06,0.02,0.13,0.04,0.19c1.56,6.38,42.41,15.1,56.37,16.6
		c21.18,2.29,41.43-4.44,60.83-15.07c19.39-10.62,53.57-1.77,56.36,11.49C998.08,357.26,997.54,358.81,996.25,359.68z"/>
	<path class="st3" d="M586.37,436.11c-2.04,1.14-3.83,22.73-3.83,22.73s-37.53,25.27-57.44,63.06
		c-10.6,20.12-45.96,38.3-52.09,49.79c-6.13,11.49-6.97,23.76-12.25,26.81c-1.4,0.81-3.67,0-5.97-2.28
		c-0.87-11,0.45-26.57,2.36-32.32c6.14-18.47,37.75-35.93,49.52-50.95c9.94-12.69,26.09-42.17,40.61-56.46
		c2.1-1.52,3.5-2.81,4.43-3.89c1.13-0.89,2.26-1.64,3.36-2.26c2.36-1.32,4.08-2.39,5.25-3.23c0.04-0.04,0.08-0.07,0.13-0.09
		c1.94-1.42,2.28-2.2,1.44-2.47C575.66,438.64,600.58,428.2,586.37,436.11z"/>
	<path class="st3" d="M559.05,417.39c0,0-35.74,17.7-61.27,18.72c-25.53,1.03-34.37-12.36-34.37-12.36l0.02-0.01l1.61-0.68
		l0.07-0.02c5.14-0.97,16.46,3.73,22.79,1.5c10.2-3.6,52.71-21.5,52.31-29.73c-0.01-0.22-0.04-0.42-0.1-0.62l11.11-2.74
		L559.05,417.39z"/>
	<path class="st3" d="M559.05,361.22c-19.4,5.11-59.91-6.47-75.91-11.13c-16-4.66-51.07,10.79-68.43,12.49
		c-12.93,1.27-40.21-12.76-53.29-20.01c7.08-6.94,38.2,5.34,50.44,2.8c13.84-2.86,52.7-23.53,71.02-18.66
		c17.92,4.75,54.8,16.82,59.94,5.32l28.15,6.38C570.97,338.41,578.46,356.11,559.05,361.22z"/>
	<path class="st3" d="M584.25,306.07c0,0-11.24,23.83-20.43,10.55c-9.19-13.27-37.45-34.04-52.59-38.8
		c-10.24-3.23-25.26-2.09-33.89-1.01c-1.72-3.95,4.25-9.19,16.01-10.23c18.13-1.61,37.12,0.86,49.02,11.24
		c10.74,9.36,19,9.56,23.59,5.73l13.52,8.56L584.25,306.07z"/>
	<path class="st3" d="M616.93,257.73c0,0-15.66,13.96-16.68,15.32c-1.03,1.36-57.2-50.04-65.37-60.94
		c-8.17-10.89-3.06-23.83-17.7-53.78c-7.42-15.2-23.96-22.07-38.45-25.15v-0.01c-1.17-2.4-0.65-4.27,2.47-5.33
		c11.36-3.85,34.41,1.03,49.61,24.01s14.58,36.62,22.12,50.05c7.83,13.96,30.99,36.89,45.62,35.7c1.91-0.15,3.29-0.72,4.26-1.63
		L616.93,257.73z"/>
	<path class="st3" d="M662.2,241.73l-24.17,3.06c0,0-20.76-36.08-21.1-52.07c-0.34-15.98,6.41-28.46,6.41-28.46
		s8.14,62.25,29.91,61.39c1.21-0.05,2.36-0.27,3.44-0.66L662.2,241.73z"/>
	<path class="st3" d="M720.83,231.8l-2.12,15.04l-36.08-10.56c9.83-21.46,7.15-86.46,0-97.7c-7.15-11.23-10.56-36.76-9.87-47.66
		c0.5-8.05,5.66-25.05,8.31-33.35c6.73,3.47,0.2,46.82,12.86,65.02c12.89,18.54,20.92,31.15,15.23,57.26
		c-5.7,26.11,5.4,48.99,10.46,51.92C719.93,231.95,720.34,231.96,720.83,231.8z"/>
	<path class="st3" d="M777.29,225c-13.04,14.36-14.32,28.11-9.24,31.04c0.07,0.04,0.14,0.07,0.23,0.1l-7.35,11.8l-22.81-17.02
		c0,0,19.74-32.34,25.87-50.57c3.94-11.72-0.15-27.28-3.57-36.9C766.5,155.82,789.12,211.97,777.29,225z"/>
	<path class="st3" d="M891.28,307.68c-0.07,1.13-0.54,2.06-1.38,2.72c-5.4,4.2-20.72,0.44-34.68,3.16
		c-8.77,1.71-32.07,21.49-31.29,27.9c0.01,0.06,0.02,0.13,0.04,0.19l-14.02,3.57l-10.03-22.49c0,0,31.81-20.74,56.67-19.72
		C869.85,303.55,882.43,305.75,891.28,307.68z"/>
	<path class="st3" d="M890.65,233.77c-34.28,9.77-91.1,48-86.04,55.66c0.02,0.03,0.05,0.07,0.07,0.1l-24.35,13.44l-8.85-15.48
		c0,0,59.23-48.82,67.06-56.99c7.83-8.17,41.88-5.45,51.75-10.9c8.53-4.7,25.46-31.28,32.53-45.44
		C930.64,177.01,924.36,224.15,890.65,233.77z"/>
	<path class="st3" d="M996.25,359.68c-0.9,0.61-2.18,0.9-3.72,1h-0.02c-7.51,0.43-21.31-3.8-28.85,2.23
		c-2.69,2.15-6.7,5.2-11.68,8.61c-15.99,10.99-41.96,25.85-66.1,27.43c-19.25,1.26-37.26,1.97-49.73,3.55h-0.02
		c-7.53,0.96-13.04,2.25-15.58,4.17h-0.02l-18.75-1.53l8.85-30.98c0,0,60.59,12.21,80.68,8.31c20.08-3.89,61.96-29.42,71.15-30.78
		C970.85,350.45,989.81,355.44,996.25,359.68z"/>
	<path class="st3" d="M865.18,467.07c-24.9,4.2-58.3-17.75-63.63-12.96c-0.98,0.88-1.83,2.33-2.44,4.18l-20.92-22.12l18.34-10
		c0,0,38.61,27.44,59.37,27.71c14.32,0.19,30.58-6.47,39.3-10.62C896.58,450.68,887.09,463.37,865.18,467.07z"/>
	<path class="st3" d="M897.01,614.89c-4.76,7.07-36.01,4.77-51.15-14.86c-15.43-19.99-21.84-63.65-36.59-69.28
		c-21.59-8.24-40.62-33.33-49.57-36.91l-8.31-13.01l19.07-11.35c0,0,36.08,41.87,53.44,49.36c17.37,7.49,21.11,54.81,29.96,65.7
		C860.44,592.64,884.9,607.7,897.01,614.89z"/>
	<path class="st3" d="M604.84,584.24c-7.08-1.02-23.62-20.78-17.54-49.75c6.09-29.01,18.47-46.34,11.7-48.4l12.66-15.07l17.52,13.09
		c0,0-24.85,43.92-28.93,57.2C597.38,550.63,601.9,572.22,604.84,584.24z"/>
	<path class="st3" d="M745.61,558.33c-2.11,11.22-8.71,26.12-12.63,34.35c-0.61-0.04-1.14-0.24-1.57-0.62
		c-4.64-4.17,5.61-21.96,1.44-36.82c-4.12-14.73-15.66-45.98-22.31-43.44v-25.3l16.92-3.75
		C727.46,482.75,748.67,541.99,745.61,558.33z"/>
	<path class="st3" d="M669.01,591.69c2.72,21.1,9.94,66.04,8.03,73.87c-1.42,5.87-4.85,29.74-14.93,41.02
		c-0.28-0.23-0.55-0.5-0.82-0.8c-10.29-11.76,3.57-31.98,3.22-46.5c-0.69-28.73-18.49-62.05-18.26-82.3
		c0.14-12.62,7.75-56.23,2.89-65.66l5.91-28.57l30.15,9.87C687.07,495.07,666.29,570.58,669.01,591.69z"/>
	<linearGradient id="SVGID_4_" gradientUnits="userSpaceOnUse" x1="547.671" y1="370.3772" x2="822.2617" y2="370.3772">
		<stop  offset="0" style="stop-color:#FFB619"/>
		<stop  offset="0.0849" style="stop-color:#FEB61B"/>
		<stop  offset="0.133" style="stop-color:#FBB724"/>
		<stop  offset="0.1719" style="stop-color:#F6B931"/>
		<stop  offset="0.2057" style="stop-color:#EFBB45"/>
		<stop  offset="0.2151" style="stop-color:#ECBC4C"/>
		<stop  offset="0.3032" style="stop-color:#EDBF4F"/>
		<stop  offset="0.3705" style="stop-color:#F0C759"/>
		<stop  offset="0.4309" style="stop-color:#F5D469"/>
		<stop  offset="0.487" style="stop-color:#FDE780"/>
		<stop  offset="0.5011" style="stop-color:#FFED87"/>
		<stop  offset="0.5017" style="stop-color:#FFED87"/>
		<stop  offset="0.563" style="stop-color:#F3CB67"/>
		<stop  offset="0.628" style="stop-color:#E9AF4D"/>
		<stop  offset="0.6985" style="stop-color:#E19A39"/>
		<stop  offset="0.7762" style="stop-color:#DB8B2B"/>
		<stop  offset="0.8666" style="stop-color:#D88223"/>
		<stop  offset="1" style="stop-color:#D77F20"/>
	</linearGradient>
	<circle class="st4" cx="684.97" cy="370.38" r="137.3"/>
	<circle class="st5" cx="684.97" cy="370.38" r="110.45"/>
	<g>
		<linearGradient id="SVGID_5_" gradientUnits="userSpaceOnUse" x1="623.6382" y1="254.4652" x2="748.5037" y2="490.3218">
			<stop  offset="0" style="stop-color:#E05D42"/>
			<stop  offset="1" style="stop-color:#F9CAC2"/>
		</linearGradient>
		<circle class="st6" cx="685.2" cy="370.75" r="124.33"/>
		
			<radialGradient id="SVGID_6_" cx="619.0993" cy="225.4568" r="398.2763" gradientTransform="matrix(0.6967 0 0 0.6967 303.0715 321.8814)" gradientUnits="userSpaceOnUse">
			<stop  offset="0" style="stop-color:#ED866C"/>
			<stop  offset="0.1063" style="stop-color:#E77F65"/>
			<stop  offset="0.264" style="stop-color:#D56B52"/>
			<stop  offset="0.4538" style="stop-color:#B74A33"/>
			<stop  offset="0.6669" style="stop-color:#8F1C07"/>
			<stop  offset="0.6725" style="stop-color:#8E1B06"/>
			<stop  offset="0.8629" style="stop-color:#A22A15"/>
			<stop  offset="0.9935" style="stop-color:#A9301B"/>
		</radialGradient>
		<circle class="st7" cx="685.2" cy="370.75" r="113.69"/>
		
			<radialGradient id="SVGID_7_" cx="587.088" cy="238.2563" r="398.2706" gradientTransform="matrix(0.5628 0 0 0.5628 394.5292 303.4037)" gradientUnits="userSpaceOnUse">
			<stop  offset="0" style="stop-color:#ED866C"/>
			<stop  offset="0.1063" style="stop-color:#E77F65"/>
			<stop  offset="0.264" style="stop-color:#D56B52"/>
			<stop  offset="0.4538" style="stop-color:#B74A33"/>
			<stop  offset="0.6669" style="stop-color:#8F1C07"/>
			<stop  offset="0.6725" style="stop-color:#8E1B06"/>
			<stop  offset="0.8629" style="stop-color:#A22A15"/>
			<stop  offset="0.9935" style="stop-color:#A9301B"/>
		</radialGradient>
		<circle class="st8" cx="685.2" cy="350.09" r="91.83"/>
		<defs>
			<filter id="Adobe_OpacityMaskFilter" filterUnits="userSpaceOnUse" x="593.8" y="275.1" width="163.01" height="115.29">
				<feFlood  style="flood-color:white;flood-opacity:1" result="back"/>
				<feBlend  in="SourceGraphic" in2="back" mode="normal"/>
			</filter>
		</defs>
		<mask maskUnits="userSpaceOnUse" x="593.8" y="275.1" width="163.01" height="115.29" id="SVGID_8_">
			<g class="st9">
				<defs>
					<filter id="Adobe_OpacityMaskFilter_1_" filterUnits="userSpaceOnUse" x="593.8" y="275.1" width="163.01" height="115.29">
						<feFlood  style="flood-color:white;flood-opacity:1" result="back"/>
						<feBlend  in="SourceGraphic" in2="back" mode="normal"/>
					</filter>
				</defs>
				<mask maskUnits="userSpaceOnUse" x="593.8" y="275.1" width="163.01" height="115.29" id="SVGID_8_">
					<g class="st10">
					</g>
				</mask>
				
					<radialGradient id="SVGID_9_" cx="594.59" cy="90.6556" r="206.9106" gradientTransform="matrix(0.6967 0 0 0.6967 303.0715 321.8814)" gradientUnits="userSpaceOnUse">
					<stop  offset="4.100000e-07" style="stop-color:#4D4D4D"/>
					<stop  offset="0.9883" style="stop-color:#FFFFFF"/>
				</radialGradient>
				<path class="st11" d="M756.81,327.06c0,0-31.25-74.34-111.7-45.18c-46.2,16.74-64.03,76.13-41.76,108.51
					c0,0-5.95-63.33,47.81-87.15C702.88,280.31,756.81,327.06,756.81,327.06z"/>
			</g>
		</mask>
		
			<radialGradient id="SVGID_10_" cx="594.59" cy="90.6556" r="206.9106" gradientTransform="matrix(0.6967 0 0 0.6967 303.0715 321.8814)" gradientUnits="userSpaceOnUse">
			<stop  offset="4.100000e-07" style="stop-color:#FFD2C9"/>
			<stop  offset="0.9883" style="stop-color:#FFDBD3"/>
		</radialGradient>
		<path class="st12" d="M756.81,327.06c0,0-31.25-74.34-111.7-45.18c-46.2,16.74-64.03,76.13-41.76,108.51
			c0,0-5.95-63.33,47.81-87.15C702.88,280.31,756.81,327.06,756.81,327.06z"/>
		<path class="st13" d="M663.72,419.07c0,2.42-1.96,4.39-4.39,4.39c-2.42,0-4.39-1.96-4.39-4.39c0-2.42,1.96-4.39,4.39-4.39
			C661.76,414.69,663.72,416.65,663.72,419.07z"/>
		<path class="st14" d="M734.69,457.49c0,2-1.62,3.62-3.62,3.62c-2,0-3.62-1.62-3.62-3.62c0-2,1.62-3.62,3.62-3.62
			C733.08,453.88,734.69,455.5,734.69,457.49z"/>
		<path class="st13" d="M744.71,366.75c0,1.1-0.96,1.99-2.13,1.99c-1.18,0-2.13-0.89-2.13-1.99c0-1.1,0.96-1.99,2.13-1.99
			C743.76,364.76,744.71,365.65,744.71,366.75z"/>
		<path class="st13" d="M699.77,327.31c0.35,0.86-0.1,1.86-1.02,2.24s-1.95-0.01-2.31-0.86c-0.35-0.86,0.1-1.86,1.02-2.24
			C698.38,326.07,699.41,326.45,699.77,327.31z"/>
		<path class="st15" d="M737.6,411.72c0,1.1-0.96,1.99-2.13,1.99c-1.18,0-2.13-0.89-2.13-1.99c0-1.1,0.96-1.99,2.13-1.99
			C736.64,409.73,737.6,410.62,737.6,411.72z"/>
		<path class="st15" d="M683.37,391.44c0,0.6-0.53,1.1-1.17,1.1s-1.17-0.49-1.17-1.1c0-0.6,0.53-1.1,1.17-1.1
			S683.37,390.84,683.37,391.44z"/>
	</g>
	<linearGradient id="SVGID_11_" gradientUnits="userSpaceOnUse" x1="623.05" y1="156.547" x2="623.7001" y2="156.547">
		<stop  offset="7.000000e-08" style="stop-color:#DB9600"/>
		<stop  offset="0.147" style="stop-color:#DC9802"/>
		<stop  offset="0.2303" style="stop-color:#DE9D0B"/>
		<stop  offset="0.2976" style="stop-color:#E2A618"/>
		<stop  offset="0.3565" style="stop-color:#E7B22C"/>
		<stop  offset="0.4098" style="stop-color:#EEC346"/>
		<stop  offset="0.4583" style="stop-color:#F6D765"/>
		<stop  offset="0.5011" style="stop-color:#FFED87"/>
		<stop  offset="0.5017" style="stop-color:#FFED87"/>
		<stop  offset="0.563" style="stop-color:#F3CB67"/>
		<stop  offset="0.628" style="stop-color:#E9AF4D"/>
		<stop  offset="0.6985" style="stop-color:#E19A39"/>
		<stop  offset="0.7762" style="stop-color:#DB8B2B"/>
		<stop  offset="0.8666" style="stop-color:#D88223"/>
		<stop  offset="1" style="stop-color:#D77F20"/>
	</linearGradient>
	<path class="st16" d="M623.7,157.2l-0.65-1.26C623.43,155.75,623.62,156.3,623.7,157.2z"/>
</g>
</svg>
